<svg xmlns="http://www.w3.org/2000/svg" width="1800" height="1240" viewBox="0 0 1800 1240">
<rect width="1800" height="1240" fill="#ffffff"/>
<style>text{font-family:Arial,Helvetica,sans-serif}</style>
<text x="55.0" y="48.0" font-size="27" font-weight="700" text-anchor="start" fill="#172033">Figure 3 | Tanzania strong-competitor external benchmark</text>
<text x="55.0" y="78.0" font-size="15" font-weight="400" text-anchor="start" fill="#596579">Candidate-minus-reference log loss: negative favours EOG; positive is worse.</text>
<text x="55.0" y="125.0" font-size="22" font-weight="700" text-anchor="start" fill="#172033">A</text>
<text x="90.0" y="125.0" font-size="19" font-weight="700" text-anchor="start" fill="#172033">Leakage-safe outer-fold workflow</text>
<rect x="90" y="150" width="300" height="74" rx="12" fill="#eef2f7" stroke="#718096" stroke-width="1.5"/>
<text x="240.0" y="181.0" font-size="14" font-weight="700" text-anchor="middle" fill="#596579">1</text>
<text x="240.0" y="201.0" font-size="13" font-weight="700" text-anchor="middle" fill="#172033">Outer-training</text>
<text x="240.0" y="217.0" font-size="13" font-weight="700" text-anchor="middle" fill="#172033">labels only</text>
<line x1="390.0" y1="187.0" x2="418.0" y2="187.0" stroke="#718096" stroke-width="2"/>
<rect x="418" y="150" width="300" height="74" rx="12" fill="#eef2f7" stroke="#718096" stroke-width="1.5"/>
<text x="568.0" y="181.0" font-size="14" font-weight="700" text-anchor="middle" fill="#596579">2</text>
<text x="568.0" y="201.0" font-size="13" font-weight="700" text-anchor="middle" fill="#172033">Select frozen</text>
<text x="568.0" y="217.0" font-size="13" font-weight="700" text-anchor="middle" fill="#172033">current-flow candidate</text>
<line x1="718.0" y1="187.0" x2="746.0" y2="187.0" stroke="#718096" stroke-width="2"/>
<rect x="746" y="150" width="300" height="74" rx="12" fill="#eef2f7" stroke="#718096" stroke-width="1.5"/>
<text x="896.0" y="181.0" font-size="14" font-weight="700" text-anchor="middle" fill="#596579">3</text>
<text x="896.0" y="201.0" font-size="13" font-weight="700" text-anchor="middle" fill="#172033">Build nearest-anchor</text>
<text x="896.0" y="217.0" font-size="13" font-weight="700" text-anchor="middle" fill="#172033">and EOG features</text>
<line x1="1046.0" y1="187.0" x2="1074.0" y2="187.0" stroke="#718096" stroke-width="2"/>
<rect x="1074" y="150" width="300" height="74" rx="12" fill="#eef2f7" stroke="#718096" stroke-width="1.5"/>
<text x="1224.0" y="181.0" font-size="14" font-weight="700" text-anchor="middle" fill="#596579">4</text>
<text x="1224.0" y="201.0" font-size="13" font-weight="700" text-anchor="middle" fill="#172033">Fit shared reference</text>
<text x="1224.0" y="217.0" font-size="13" font-weight="700" text-anchor="middle" fill="#172033">and candidate tiers</text>
<line x1="1374.0" y1="187.0" x2="1402.0" y2="187.0" stroke="#718096" stroke-width="2"/>
<rect x="1402" y="150" width="300" height="74" rx="12" fill="#eef2f7" stroke="#718096" stroke-width="1.5"/>
<text x="1552.0" y="181.0" font-size="14" font-weight="700" text-anchor="middle" fill="#596579">5</text>
<text x="1552.0" y="201.0" font-size="13" font-weight="700" text-anchor="middle" fill="#172033">Score untouched</text>
<text x="1552.0" y="217.0" font-size="13" font-weight="700" text-anchor="middle" fill="#172033">held-out label</text>
<text x="55.0" y="280.0" font-size="22" font-weight="700" text-anchor="start" fill="#172033">B</text>
<text x="90.0" y="280.0" font-size="19" font-weight="700" text-anchor="start" fill="#172033">Strict paired comparison</text>
<rect x="90" y="305" width="760" height="92" rx="14" fill="#f7fafc" stroke="#4a5568" stroke-width="1.5"/>
<text x="120.0" y="337.0" font-size="15" font-weight="700" text-anchor="start" fill="#172033">Reference</text>
<text x="120.0" y="366.0" font-size="15" font-weight="400" text-anchor="start" fill="#172033">area + selected current flow + area × current flow + nearest occurrence</text>
<rect x="900" y="305" width="760" height="92" rx="14" fill="#fff7ed" stroke="#a84a2a" stroke-width="1.5"/>
<text x="930.0" y="337.0" font-size="15" font-weight="700" text-anchor="start" fill="#a84a2a">Candidate</text>
<text x="930.0" y="366.0" font-size="15" font-weight="400" text-anchor="start" fill="#172033">reference + EOG connected frequency</text>
<text x="55.0" y="440.0" font-size="22" font-weight="700" text-anchor="start" fill="#172033">C</text>
<text x="90.0" y="440.0" font-size="19" font-weight="700" text-anchor="start" fill="#172033">Species-level primary LOSO effects</text>
<line x1="296.0" y1="470.0" x2="296.0" y2="1110.0" stroke="#253047" stroke-width="2" stroke-dasharray="6 5"/>
<line x1="90.0" y1="1110.0" x2="90.0" y2="1118.0" stroke="#596579" stroke-width="1.2"/>
<text x="90.0" y="1139.0" font-size="12" font-weight="400" text-anchor="middle" fill="#596579">-0.10</text>
<line x1="296.0" y1="1110.0" x2="296.0" y2="1118.0" stroke="#596579" stroke-width="1.2"/>
<text x="296.0" y="1139.0" font-size="12" font-weight="400" text-anchor="middle" fill="#596579">0</text>
<line x1="502.0" y1="1110.0" x2="502.0" y2="1118.0" stroke="#596579" stroke-width="1.2"/>
<text x="502.0" y="1139.0" font-size="12" font-weight="400" text-anchor="middle" fill="#596579">+0.10</text>
<line x1="708.0" y1="1110.0" x2="708.0" y2="1118.0" stroke="#596579" stroke-width="1.2"/>
<text x="708.0" y="1139.0" font-size="12" font-weight="400" text-anchor="middle" fill="#596579">+0.20</text>
<line x1="914.0" y1="1110.0" x2="914.0" y2="1118.0" stroke="#596579" stroke-width="1.2"/>
<text x="914.0" y="1139.0" font-size="12" font-weight="400" text-anchor="middle" fill="#596579">+0.30</text>
<line x1="1120.0" y1="1110.0" x2="1120.0" y2="1118.0" stroke="#596579" stroke-width="1.2"/>
<text x="1120.0" y="1139.0" font-size="12" font-weight="400" text-anchor="middle" fill="#596579">+0.40</text>
<text x="90.0" y="453.0" font-size="13" font-weight="700" text-anchor="start" fill="#2d6f73">17 species below zero</text>
<text x="1120.0" y="453.0" font-size="13" font-weight="700" text-anchor="end" fill="#a84a2a">43 species above zero</text>
<line x1="296.0" y1="1110.0" x2="186.6" y2="1110.0" stroke="#d5dae3" stroke-width="1.0"/>
<circle class="species-point" cx="186.6" cy="1110.0" r="5.60" fill="#2d6f73" fill-opacity="0.86" data-matched="14"/>
<line x1="296.0" y1="1099.2" x2="214.5" y2="1099.2" stroke="#d5dae3" stroke-width="1.0"/>
<circle class="species-point" cx="214.5" cy="1099.2" r="5.60" fill="#2d6f73" fill-opacity="0.86" data-matched="14"/>
<line x1="296.0" y1="1088.3" x2="228.1" y2="1088.3" stroke="#d5dae3" stroke-width="1.0"/>
<circle class="species-point" cx="228.1" cy="1088.3" r="5.60" fill="#2d6f73" fill-opacity="0.86" data-matched="14"/>
<line x1="296.0" y1="1077.5" x2="236.8" y2="1077.5" stroke="#d5dae3" stroke-width="1.0"/>
<circle class="species-point" cx="236.8" cy="1077.5" r="5.60" fill="#2d6f73" fill-opacity="0.86" data-matched="14"/>
<line x1="296.0" y1="1066.6" x2="242.1" y2="1066.6" stroke="#d5dae3" stroke-width="1.0"/>
<circle class="species-point" cx="242.1" cy="1066.6" r="5.31" fill="#2d6f73" fill-opacity="0.86" data-matched="12"/>
<line x1="296.0" y1="1055.8" x2="242.1" y2="1055.8" stroke="#d5dae3" stroke-width="1.0"/>
<circle class="species-point" cx="242.1" cy="1055.8" r="5.31" fill="#2d6f73" fill-opacity="0.86" data-matched="12"/>
<line x1="296.0" y1="1044.9" x2="245.0" y2="1044.9" stroke="#d5dae3" stroke-width="1.0"/>
<circle class="species-point" cx="245.0" cy="1044.9" r="5.31" fill="#2d6f73" fill-opacity="0.86" data-matched="12"/>
<line x1="296.0" y1="1034.1" x2="251.5" y2="1034.1" stroke="#d5dae3" stroke-width="1.0"/>
<circle class="species-point" cx="251.5" cy="1034.1" r="5.60" fill="#2d6f73" fill-opacity="0.86" data-matched="14"/>
<line x1="296.0" y1="1023.2" x2="251.5" y2="1023.2" stroke="#d5dae3" stroke-width="1.0"/>
<circle class="species-point" cx="251.5" cy="1023.2" r="5.60" fill="#2d6f73" fill-opacity="0.86" data-matched="14"/>
<line x1="296.0" y1="1012.4" x2="251.5" y2="1012.4" stroke="#d5dae3" stroke-width="1.0"/>
<circle class="species-point" cx="251.5" cy="1012.4" r="5.60" fill="#2d6f73" fill-opacity="0.86" data-matched="14"/>
<line x1="296.0" y1="1001.5" x2="255.3" y2="1001.5" stroke="#d5dae3" stroke-width="1.0"/>
<circle class="species-point" cx="255.3" cy="1001.5" r="5.31" fill="#2d6f73" fill-opacity="0.86" data-matched="12"/>
<line x1="296.0" y1="990.7" x2="257.2" y2="990.7" stroke="#d5dae3" stroke-width="1.0"/>
<circle class="species-point" cx="257.2" cy="990.7" r="5.60" fill="#2d6f73" fill-opacity="0.86" data-matched="14"/>
<line x1="296.0" y1="979.8" x2="266.2" y2="979.8" stroke="#d5dae3" stroke-width="1.0"/>
<circle class="species-point" cx="266.2" cy="979.8" r="5.60" fill="#2d6f73" fill-opacity="0.86" data-matched="14"/>
<line x1="296.0" y1="969.0" x2="282.8" y2="969.0" stroke="#d5dae3" stroke-width="1.0"/>
<circle class="species-point" cx="282.8" cy="969.0" r="5.60" fill="#2d6f73" fill-opacity="0.86" data-matched="14"/>
<line x1="296.0" y1="958.1" x2="284.7" y2="958.1" stroke="#d5dae3" stroke-width="1.0"/>
<circle class="species-point" cx="284.7" cy="958.1" r="5.31" fill="#2d6f73" fill-opacity="0.86" data-matched="12"/>
<line x1="296.0" y1="947.3" x2="295.9" y2="947.3" stroke="#d5dae3" stroke-width="1.0"/>
<circle class="species-point" cx="295.9" cy="947.3" r="5.31" fill="#2d6f73" fill-opacity="0.86" data-matched="12"/>
<line x1="296.0" y1="936.4" x2="295.9" y2="936.4" stroke="#d5dae3" stroke-width="1.0"/>
<circle class="species-point" cx="295.9" cy="936.4" r="5.60" fill="#2d6f73" fill-opacity="0.86" data-matched="14"/>
<line x1="296.0" y1="925.6" x2="296.8" y2="925.6" stroke="#d5dae3" stroke-width="1.0"/>
<circle class="species-point" cx="296.8" cy="925.6" r="5.60" fill="#a84a2a" fill-opacity="0.86" data-matched="14"/>
<line x1="296.0" y1="914.7" x2="298.0" y2="914.7" stroke="#d5dae3" stroke-width="1.0"/>
<circle class="species-point" cx="298.0" cy="914.7" r="5.60" fill="#a84a2a" fill-opacity="0.86" data-matched="14"/>
<line x1="296.0" y1="903.9" x2="298.0" y2="903.9" stroke="#d5dae3" stroke-width="1.0"/>
<circle class="species-point" cx="298.0" cy="903.9" r="5.60" fill="#a84a2a" fill-opacity="0.86" data-matched="14"/>
<line x1="296.0" y1="893.1" x2="300.3" y2="893.1" stroke="#d5dae3" stroke-width="1.0"/>
<circle class="species-point" cx="300.3" cy="893.1" r="5.60" fill="#a84a2a" fill-opacity="0.86" data-matched="14"/>
<line x1="296.0" y1="882.2" x2="302.2" y2="882.2" stroke="#d5dae3" stroke-width="1.0"/>
<circle class="species-point" cx="302.2" cy="882.2" r="5.60" fill="#a84a2a" fill-opacity="0.86" data-matched="14"/>
<line x1="296.0" y1="871.4" x2="302.2" y2="871.4" stroke="#d5dae3" stroke-width="1.0"/>
<circle class="species-point" cx="302.2" cy="871.4" r="5.60" fill="#a84a2a" fill-opacity="0.86" data-matched="14"/>
<line x1="296.0" y1="860.5" x2="305.2" y2="860.5" stroke="#d5dae3" stroke-width="1.0"/>
<circle class="species-point" cx="305.2" cy="860.5" r="5.60" fill="#a84a2a" fill-opacity="0.86" data-matched="14"/>
<line x1="296.0" y1="849.7" x2="308.4" y2="849.7" stroke="#d5dae3" stroke-width="1.0"/>
<circle class="species-point" cx="308.4" cy="849.7" r="5.60" fill="#a84a2a" fill-opacity="0.86" data-matched="14"/>
<line x1="296.0" y1="838.8" x2="318.3" y2="838.8" stroke="#d5dae3" stroke-width="1.0"/>
<circle class="species-point" cx="318.3" cy="838.8" r="5.60" fill="#a84a2a" fill-opacity="0.86" data-matched="14"/>
<line x1="296.0" y1="828.0" x2="323.2" y2="828.0" stroke="#d5dae3" stroke-width="1.0"/>
<circle class="species-point" cx="323.2" cy="828.0" r="5.60" fill="#a84a2a" fill-opacity="0.86" data-matched="14"/>
<line x1="296.0" y1="817.1" x2="327.8" y2="817.1" stroke="#d5dae3" stroke-width="1.0"/>
<circle class="species-point" cx="327.8" cy="817.1" r="5.60" fill="#a84a2a" fill-opacity="0.86" data-matched="14"/>
<line x1="296.0" y1="806.3" x2="331.1" y2="806.3" stroke="#d5dae3" stroke-width="1.0"/>
<circle class="species-point" cx="331.1" cy="806.3" r="5.60" fill="#a84a2a" fill-opacity="0.86" data-matched="14"/>
<line x1="296.0" y1="795.4" x2="339.9" y2="795.4" stroke="#d5dae3" stroke-width="1.0"/>
<circle class="species-point" cx="339.9" cy="795.4" r="5.60" fill="#a84a2a" fill-opacity="0.86" data-matched="14"/>
<line x1="296.0" y1="784.6" x2="340.7" y2="784.6" stroke="#d5dae3" stroke-width="1.0"/>
<circle class="species-point" cx="340.7" cy="784.6" r="5.60" fill="#a84a2a" fill-opacity="0.86" data-matched="14"/>
<line x1="296.0" y1="773.7" x2="341.1" y2="773.7" stroke="#d5dae3" stroke-width="1.0"/>
<circle class="species-point" cx="341.1" cy="773.7" r="5.60" fill="#a84a2a" fill-opacity="0.86" data-matched="14"/>
<line x1="296.0" y1="762.9" x2="348.7" y2="762.9" stroke="#d5dae3" stroke-width="1.0"/>
<circle class="species-point" cx="348.7" cy="762.9" r="5.60" fill="#a84a2a" fill-opacity="0.86" data-matched="14"/>
<line x1="296.0" y1="752.0" x2="351.1" y2="752.0" stroke="#d5dae3" stroke-width="1.0"/>
<circle class="species-point" cx="351.1" cy="752.0" r="5.60" fill="#a84a2a" fill-opacity="0.86" data-matched="14"/>
<line x1="296.0" y1="741.2" x2="351.4" y2="741.2" stroke="#d5dae3" stroke-width="1.0"/>
<circle class="species-point" cx="351.4" cy="741.2" r="5.60" fill="#a84a2a" fill-opacity="0.86" data-matched="14"/>
<line x1="296.0" y1="730.3" x2="357.0" y2="730.3" stroke="#d5dae3" stroke-width="1.0"/>
<circle class="species-point" cx="357.0" cy="730.3" r="5.60" fill="#a84a2a" fill-opacity="0.86" data-matched="14"/>
<line x1="296.0" y1="719.5" x2="359.0" y2="719.5" stroke="#d5dae3" stroke-width="1.0"/>
<circle class="species-point" cx="359.0" cy="719.5" r="5.60" fill="#a84a2a" fill-opacity="0.86" data-matched="14"/>
<line x1="296.0" y1="708.6" x2="360.2" y2="708.6" stroke="#d5dae3" stroke-width="1.0"/>
<circle class="species-point" cx="360.2" cy="708.6" r="5.60" fill="#a84a2a" fill-opacity="0.86" data-matched="14"/>
<line x1="296.0" y1="697.8" x2="364.8" y2="697.8" stroke="#d5dae3" stroke-width="1.0"/>
<circle class="species-point" cx="364.8" cy="697.8" r="5.60" fill="#a84a2a" fill-opacity="0.86" data-matched="14"/>
<line x1="296.0" y1="686.9" x2="370.9" y2="686.9" stroke="#d5dae3" stroke-width="1.0"/>
<circle class="species-point" cx="370.9" cy="686.9" r="5.60" fill="#a84a2a" fill-opacity="0.86" data-matched="14"/>
<line x1="296.0" y1="676.1" x2="374.0" y2="676.1" stroke="#d5dae3" stroke-width="1.0"/>
<circle class="species-point" cx="374.0" cy="676.1" r="5.60" fill="#a84a2a" fill-opacity="0.86" data-matched="14"/>
<line x1="296.0" y1="665.3" x2="376.9" y2="665.3" stroke="#d5dae3" stroke-width="1.0"/>
<circle class="species-point" cx="376.9" cy="665.3" r="5.31" fill="#a84a2a" fill-opacity="0.86" data-matched="12"/>
<line x1="296.0" y1="654.4" x2="386.9" y2="654.4" stroke="#d5dae3" stroke-width="1.0"/>
<circle class="species-point" cx="386.9" cy="654.4" r="5.60" fill="#a84a2a" fill-opacity="0.86" data-matched="14"/>
<line x1="296.0" y1="643.6" x2="395.7" y2="643.6" stroke="#d5dae3" stroke-width="1.0"/>
<circle class="species-point" cx="395.7" cy="643.6" r="5.60" fill="#a84a2a" fill-opacity="0.86" data-matched="14"/>
<line x1="296.0" y1="632.7" x2="403.9" y2="632.7" stroke="#d5dae3" stroke-width="1.0"/>
<circle class="species-point" cx="403.9" cy="632.7" r="5.60" fill="#a84a2a" fill-opacity="0.86" data-matched="14"/>
<line x1="296.0" y1="621.9" x2="404.8" y2="621.9" stroke="#d5dae3" stroke-width="1.0"/>
<circle class="species-point" cx="404.8" cy="621.9" r="5.60" fill="#a84a2a" fill-opacity="0.86" data-matched="14"/>
<line x1="296.0" y1="611.0" x2="416.7" y2="611.0" stroke="#d5dae3" stroke-width="1.0"/>
<circle class="species-point" cx="416.7" cy="611.0" r="5.60" fill="#a84a2a" fill-opacity="0.86" data-matched="14"/>
<line x1="296.0" y1="600.2" x2="418.5" y2="600.2" stroke="#d5dae3" stroke-width="1.0"/>
<circle class="species-point" cx="418.5" cy="600.2" r="5.60" fill="#a84a2a" fill-opacity="0.86" data-matched="14"/>
<line x1="296.0" y1="589.3" x2="428.1" y2="589.3" stroke="#d5dae3" stroke-width="1.0"/>
<circle class="species-point" cx="428.1" cy="589.3" r="5.60" fill="#a84a2a" fill-opacity="0.86" data-matched="14"/>
<line x1="296.0" y1="578.5" x2="458.8" y2="578.5" stroke="#d5dae3" stroke-width="1.0"/>
<circle class="species-point" cx="458.8" cy="578.5" r="5.60" fill="#a84a2a" fill-opacity="0.86" data-matched="14"/>
<line x1="296.0" y1="567.6" x2="476.6" y2="567.6" stroke="#d5dae3" stroke-width="1.0"/>
<circle class="species-point" cx="476.6" cy="567.6" r="5.60" fill="#a84a2a" fill-opacity="0.86" data-matched="14"/>
<line x1="296.0" y1="556.8" x2="476.6" y2="556.8" stroke="#d5dae3" stroke-width="1.0"/>
<circle class="species-point" cx="476.6" cy="556.8" r="5.60" fill="#a84a2a" fill-opacity="0.86" data-matched="14"/>
<line x1="296.0" y1="545.9" x2="477.2" y2="545.9" stroke="#d5dae3" stroke-width="1.0"/>
<circle class="species-point" cx="477.2" cy="545.9" r="5.60" fill="#a84a2a" fill-opacity="0.86" data-matched="14"/>
<line x1="296.0" y1="535.1" x2="481.3" y2="535.1" stroke="#d5dae3" stroke-width="1.0"/>
<circle class="species-point" cx="481.3" cy="535.1" r="5.60" fill="#a84a2a" fill-opacity="0.86" data-matched="14"/>
<line x1="296.0" y1="524.2" x2="493.9" y2="524.2" stroke="#d5dae3" stroke-width="1.0"/>
<circle class="species-point" cx="493.9" cy="524.2" r="5.60" fill="#a84a2a" fill-opacity="0.86" data-matched="14"/>
<line x1="296.0" y1="513.4" x2="528.0" y2="513.4" stroke="#d5dae3" stroke-width="1.0"/>
<circle class="species-point" cx="528.0" cy="513.4" r="5.60" fill="#a84a2a" fill-opacity="0.86" data-matched="14"/>
<line x1="296.0" y1="502.5" x2="548.2" y2="502.5" stroke="#d5dae3" stroke-width="1.0"/>
<circle class="species-point" cx="548.2" cy="502.5" r="5.60" fill="#a84a2a" fill-opacity="0.86" data-matched="14"/>
<line x1="296.0" y1="491.7" x2="552.2" y2="491.7" stroke="#d5dae3" stroke-width="1.0"/>
<circle class="species-point" cx="552.2" cy="491.7" r="5.60" fill="#a84a2a" fill-opacity="0.86" data-matched="14"/>
<line x1="296.0" y1="480.8" x2="863.6" y2="480.8" stroke="#d5dae3" stroke-width="1.0"/>
<circle class="species-point" cx="863.6" cy="480.8" r="5.60" fill="#a84a2a" fill-opacity="0.86" data-matched="14"/>
<line x1="296.0" y1="470.0" x2="883.5" y2="470.0" stroke="#d5dae3" stroke-width="1.0"/>
<circle class="species-point" cx="883.5" cy="470.0" r="5.60" fill="#a84a2a" fill-opacity="0.86" data-matched="14"/>
<text x="605.0" y="1168.0" font-size="14" font-weight="700" text-anchor="middle" fill="#172033">Mean candidate-minus-reference log-loss difference</text>
<text x="90.0" y="1192.0" font-size="12" font-weight="400" text-anchor="start" fill="#2d6f73">Improved relative to reference</text>
<text x="1120.0" y="1192.0" font-size="12" font-weight="400" text-anchor="end" fill="#a84a2a">Worsened relative to reference</text>
<text x="1180.0" y="440.0" font-size="22" font-weight="700" text-anchor="start" fill="#172033">D</text>
<text x="1220.0" y="440.0" font-size="19" font-weight="700" text-anchor="start" fill="#172033">Species-macro aggregate contrasts</text>
<line x1="1319.0" y1="480.0" x2="1319.0" y2="800.0" stroke="#253047" stroke-width="2" stroke-dasharray="6 5"/>
<text x="1220.0" y="482.0" font-size="13" font-weight="700" text-anchor="start" fill="#172033">Primary weighting | LOSO</text>
<line x1="1336.3" y1="508.0" x2="1367.2" y2="508.0" stroke="#a84a2a" stroke-width="6"/>
<circle class="aggregate-point" cx="1350.8" cy="508.0" r="7" fill="#a84a2a" stroke="#ffffff" stroke-width="2"/>
<text x="1715.0" y="482.0" font-size="12" font-weight="400" text-anchor="end" fill="#a84a2a">+0.032 [+0.017, +0.049]</text>
<text x="1220.0" y="552.0" font-size="13" font-weight="700" text-anchor="start" fill="#172033">Inverse-area weighting | LOSO</text>
<line x1="1335.1" y1="578.0" x2="1365.5" y2="578.0" stroke="#a84a2a" stroke-width="6"/>
<circle class="aggregate-point" cx="1349.3" cy="578.0" r="7" fill="#a84a2a" stroke="#ffffff" stroke-width="2"/>
<text x="1715.0" y="552.0" font-size="12" font-weight="400" text-anchor="end" fill="#a84a2a">+0.031 [+0.016, +0.047]</text>
<text x="1220.0" y="622.0" font-size="13" font-weight="700" text-anchor="start" fill="#172033">Primary weighting | spatial MST blocks</text>
<line x1="1307.0" y1="648.0" x2="1352.1" y2="648.0" stroke="#6b7280" stroke-width="6"/>
<circle class="aggregate-point" cx="1329.8" cy="648.0" r="7" fill="#6b7280" stroke="#ffffff" stroke-width="2"/>
<text x="1715.0" y="622.0" font-size="12" font-weight="400" text-anchor="end" fill="#6b7280">+0.011 [-0.012, +0.033]</text>
<text x="1220.0" y="692.0" font-size="13" font-weight="700" text-anchor="start" fill="#172033">Inverse-area weighting | spatial MST blocks</text>
<line x1="1303.6" y1="718.0" x2="1344.6" y2="718.0" stroke="#6b7280" stroke-width="6"/>
<circle class="aggregate-point" cx="1324.6" cy="718.0" r="7" fill="#6b7280" stroke="#ffffff" stroke-width="2"/>
<text x="1715.0" y="692.0" font-size="12" font-weight="400" text-anchor="end" fill="#6b7280">+0.006 [-0.016, +0.026]</text>
<text x="1467.5" y="812.0" font-size="12" font-weight="700" text-anchor="middle" fill="#596579">Same log-loss-difference scale as panel C</text>
<text x="1180.0" y="850.0" font-size="22" font-weight="700" text-anchor="start" fill="#172033">E</text>
<text x="1220.0" y="850.0" font-size="19" font-weight="700" text-anchor="start" fill="#172033">Applicability and explicit failures</text>
<text x="1220.0" y="882.0" font-size="13" font-weight="400" text-anchor="start" fill="#596579">3,360 declared held-out rows across four weighting × partition combinations</text>
<rect x="1220" y="910" width="495" height="112" rx="12" fill="#f8fafc" stroke="#a0a8b8" stroke-width="1.2"/>
<text x="1245.0" y="938.0" font-size="15" font-weight="700" text-anchor="start" fill="#172033">Leave-one-fragment-out</text>
<text x="1245.0" y="963.0" font-size="13" font-weight="400" text-anchor="start" fill="#172033">826 matched / 840 declared per weighting</text>
<text x="1245.0" y="986.0" font-size="13" font-weight="700" text-anchor="start" fill="#a84a2a">14 non-estimable</text>
<text x="1245.0" y="1008.0" font-size="12" font-weight="400" text-anchor="start" fill="#596579">Failure reasons: 14 single-class</text>
<rect x="1220" y="1042" width="495" height="112" rx="12" fill="#f8fafc" stroke="#a0a8b8" stroke-width="1.2"/>
<text x="1245.0" y="1070.0" font-size="15" font-weight="700" text-anchor="start" fill="#172033">Spatial MST blocks</text>
<text x="1245.0" y="1095.0" font-size="13" font-weight="400" text-anchor="start" fill="#172033">718 matched / 840 declared per weighting</text>
<text x="1245.0" y="1118.0" font-size="13" font-weight="700" text-anchor="start" fill="#a84a2a">122 non-estimable</text>
<text x="1245.0" y="1140.0" font-size="12" font-weight="400" text-anchor="start" fill="#596579">Failure reasons: 66 single-class, 56 current-flow selection</text>
<text x="55.0" y="1210.0" font-size="12" font-weight="400" text-anchor="start" fill="#596579">All 60 species are shown; species identifiers remain in the plotted-data sidecar rather than being selectively labelled.</text>
</svg>
